<?xml version="1.0" encoding="UTF-8" standalone="no"?>
<svg xmlns:xlink="http://www.w3.org/1999/xlink" height="34.35px" width="22.45px" xmlns="http://www.w3.org/2000/svg">
  <g transform="matrix(1.0, 0.0, 0.0, 1.0, -32.5, -3.85)">
    <path d="M53.55 8.15 L53.8 8.2 53.9 8.25 54.0 8.4 54.05 8.55 53.9 11.55 53.9 11.6 53.9 14.5 53.9 14.55 Q53.8 15.85 54.15 19.0 L54.5 24.45 54.5 24.5 Q54.5 25.75 54.85 27.05 L54.8 27.0 54.65 27.65 54.5 27.7 54.35 27.8 51.65 29.65 50.35 30.7 Q48.8 31.6 46.85 33.3 L43.5 36.1 41.6 37.85 41.5 37.95 41.45 38.0 41.35 38.05 40.85 38.05 40.8 38.0 Q39.55 36.9 37.2 35.8 L33.8 34.05 Q32.5 33.4 32.6 33.15 L32.7 32.95 33.1 31.55 33.65 28.7 33.65 28.65 34.95 14.4 34.85 14.25 34.85 14.0 35.0 13.85 39.95 11.15 40.15 11.15 40.35 10.55 40.75 8.15 Q40.85 6.45 41.05 5.75 41.15 5.3 41.8 5.35 42.35 5.45 43.0 6.25 L43.35 6.8 Q44.5 4.75 46.4 4.0 47.3 3.7 48.25 4.7 48.8 5.6 48.45 6.85 L48.05 7.9 50.85 7.9 50.9 7.9 53.5 8.15 53.55 8.15 M53.25 11.55 L53.4 8.9 50.3 10.1 50.25 10.15 Q48.5 10.85 46.95 11.7 L46.9 11.7 46.4 11.95 46.35 11.95 Q44.35 13.0 42.6 14.2 L42.2 14.4 42.25 14.4 41.1 15.25 41.1 26.2 41.2 30.65 41.4 35.1 41.5 36.2 41.55 36.55 41.55 36.75 41.55 37.05 43.05 35.65 46.45 32.8 50.0 30.15 51.25 29.15 51.3 29.1 53.95 27.25 54.05 27.2 54.15 27.15 Q53.8 25.8 53.85 24.5 L53.5 19.05 Q53.15 15.9 53.25 14.55 L53.25 14.5 53.25 11.55 M50.85 8.55 L47.95 8.55 47.8 8.5 47.6 8.95 46.9 11.0 Q48.35 10.2 49.95 9.55 L50.0 9.55 Q50.65 9.15 52.3 8.6 L50.85 8.55 M47.75 4.95 L47.35 4.65 Q47.1 4.5 46.9 4.65 45.9 5.1 45.05 6.2 L43.8 8.1 43.9 8.55 44.0 9.0 45.9 8.05 45.95 8.0 46.35 7.95 47.4 7.95 47.45 7.95 47.9 6.8 Q48.15 5.75 47.75 4.95 M43.0 7.4 L42.35 6.35 42.1 6.15 41.8 6.2 Q41.55 6.5 41.45 7.0 L41.35 7.85 40.85 10.65 41.95 10.1 42.15 10.05 42.8 7.85 43.0 7.4 M43.3 9.35 L43.55 9.25 43.6 9.2 43.5 8.75 43.3 9.35 M43.65 9.9 Q43.45 9.95 43.35 10.1 L43.1 10.15 43.0 10.15 42.5 11.95 42.4 13.5 46.05 11.4 46.35 11.25 Q46.65 9.9 47.2 8.6 L46.35 8.6 46.15 8.6 44.15 9.65 44.0 9.65 43.8 11.0 43.5 11.15 43.65 10.7 43.65 10.15 43.65 9.9 M40.6 11.4 L40.35 11.9 40.1 12.2 40.0 11.95 40.0 11.85 36.25 13.85 40.4 14.65 40.75 14.6 40.8 14.6 41.9 13.85 42.0 13.8 Q41.7 12.5 41.95 11.0 L42.05 10.75 40.85 11.35 40.65 11.4 40.6 11.4 M50.6 21.6 L49.9 21.55 48.75 21.7 48.1 21.9 48.05 22.05 48.05 22.15 48.05 22.2 48.05 22.35 48.0 22.75 47.95 23.05 47.95 23.75 47.95 24.0 47.95 24.15 47.95 24.65 48.3 24.55 48.5 24.4 48.65 24.4 48.75 24.35 49.05 24.15 49.2 24.1 49.35 23.95 49.5 23.85 49.6 23.8 49.75 23.65 50.05 23.4 50.1 23.35 50.25 23.2 50.35 23.15 50.7 22.8 50.8 22.65 51.1 22.2 51.15 22.1 51.1 21.85 50.9 21.65 50.8 21.65 50.6 21.6 M47.8 16.45 L48.0 16.3 49.15 15.85 49.7 15.7 50.55 15.75 50.8 15.85 51.0 15.95 51.1 16.05 51.35 16.45 51.45 16.8 51.55 17.55 51.5 18.05 51.45 18.3 51.35 18.4 51.3 18.75 51.1 19.0 51.1 19.1 50.4 20.0 50.35 20.05 50.2 20.2 50.15 20.25 50.1 20.4 50.25 20.4 50.8 20.45 51.35 20.6 51.9 20.95 52.1 21.3 52.2 21.3 52.15 21.35 Q52.3 22.0 51.95 22.55 L51.45 23.15 51.35 23.25 51.3 23.3 51.3 23.35 51.15 23.45 51.15 23.5 50.9 23.7 50.8 23.8 50.75 23.85 50.65 23.95 50.6 23.95 50.35 24.15 50.25 24.2 49.65 24.65 49.5 24.7 49.1 25.0 48.95 25.05 48.9 25.1 48.75 25.2 48.65 25.2 48.5 25.3 48.35 25.35 48.25 25.45 47.95 25.5 48.05 26.2 48.15 26.25 48.15 26.35 48.2 26.45 48.15 26.6 48.05 26.65 48.05 26.75 47.95 26.8 47.9 26.85 47.85 26.85 47.7 27.0 47.6 27.1 47.45 27.1 47.3 27.05 47.2 26.95 47.0 26.65 46.95 26.2 46.95 25.9 46.75 25.95 46.4 26.05 46.1 26.1 45.95 26.05 45.65 25.95 45.4 25.7 45.3 25.55 45.25 25.35 45.25 25.15 45.5 25.05 46.0 25.05 46.4 25.15 46.65 25.15 46.95 25.05 46.9 22.45 46.85 22.4 46.75 22.4 46.65 22.4 46.35 22.35 46.05 22.2 45.95 22.0 46.05 21.7 46.3 21.55 46.9 21.35 47.2 19.1 47.25 19.0 47.25 18.9 47.45 18.5 47.6 18.4 47.9 18.4 48.3 18.5 48.35 18.55 48.5 18.75 48.5 18.85 48.55 19.1 48.4 19.65 48.35 19.75 48.3 19.85 48.3 20.0 48.25 20.25 48.25 20.4 48.25 20.7 49.15 20.0 49.5 19.65 50.5 18.0 50.7 17.6 Q50.65 17.45 50.75 17.25 L50.75 16.95 50.5 16.8 50.4 16.7 50.25 16.7 50.05 16.8 49.95 16.75 49.75 16.8 49.5 16.85 49.35 16.85 49.25 16.9 49.05 17.0 49.0 17.0 48.8 17.1 48.8 17.15 48.5 17.25 48.4 17.3 48.3 17.35 48.15 17.45 47.95 17.55 47.7 17.7 47.55 17.85 47.4 17.95 47.35 18.0 46.9 18.3 46.75 18.4 46.35 18.8 46.25 18.9 46.1 19.05 46.0 19.15 45.9 19.25 45.85 19.3 45.7 19.4 45.65 19.45 45.6 19.5 45.5 19.6 45.45 19.7 45.3 19.8 45.25 19.9 45.15 20.0 45.1 20.1 45.0 20.2 44.9 20.25 44.8 20.35 44.8 20.4 44.75 20.45 44.6 20.6 44.4 20.85 44.15 21.3 44.05 21.4 44.05 21.45 43.85 21.8 43.85 21.85 43.8 22.0 43.65 22.3 43.55 22.6 43.5 22.65 43.5 22.8 43.55 23.35 43.75 23.55 43.9 23.55 44.0 23.5 44.15 23.5 44.35 23.35 44.75 23.2 45.0 23.3 45.1 23.35 45.15 23.45 45.1 23.75 45.05 23.85 44.9 24.0 44.7 24.05 44.7 24.1 44.2 24.2 44.0 24.15 43.9 24.15 43.8 24.15 43.75 24.15 43.65 24.1 43.55 24.05 43.2 23.75 43.1 23.65 43.05 23.55 42.95 23.15 Q42.85 22.8 42.9 22.35 L43.25 21.1 43.65 20.35 43.7 20.3 43.75 20.2 44.6 19.15 44.6 19.05 45.4 18.25 47.3 16.7 47.6 16.55 47.7 16.5 47.8 16.45 M40.85 36.35 L40.85 36.2 40.75 35.2 Q40.55 33.4 40.5 30.65 L40.45 26.2 40.45 15.35 40.4 15.35 35.6 14.4 34.3 28.75 34.3 28.8 33.75 31.7 33.3 33.15 Q33.5 33.15 34.1 33.5 L37.55 35.2 Q39.65 36.25 40.9 37.2 L40.85 36.35" fill="#ffffff" fill-rule="evenodd" stroke="none"/>
    <path d="M53.55 8.15 L53.8 8.2 53.9 8.25 54.0 8.4 54.05 8.55 53.9 11.55 53.9 11.6 53.9 14.5 53.9 14.55 Q53.8 15.85 54.15 19.0 L54.5 24.45 54.5 24.5 Q54.5 25.75 54.85 27.05 L54.8 27.0 54.65 27.65 54.5 27.7 54.35 27.8 51.65 29.65 50.35 30.7 Q48.8 31.6 46.85 33.3 L43.5 36.1 41.6 37.85 41.5 37.95 41.45 38.0 41.35 38.05 40.85 38.05 40.8 38.0 Q39.55 36.9 37.2 35.8 L33.8 34.05 Q32.5 33.4 32.6 33.15 L32.7 32.95 33.1 31.55 33.65 28.7 33.65 28.65 34.95 14.4 34.85 14.25 34.85 14.0 35.0 13.85 39.95 11.15 40.15 11.15 40.35 10.55 40.75 8.15 Q40.85 6.45 41.05 5.75 41.15 5.3 41.8 5.35 42.35 5.45 43.0 6.25 L43.35 6.8 Q44.5 4.75 46.4 4.0 47.3 3.7 48.25 4.7 48.8 5.6 48.45 6.85 L48.05 7.9 50.85 7.9 50.9 7.9 53.5 8.15 53.55 8.15 M50.85 8.55 L52.3 8.6 Q50.65 9.15 50.0 9.55 L49.95 9.55 Q48.35 10.2 46.9 11.0 L47.6 8.95 47.8 8.5 47.95 8.55 50.85 8.55 M53.25 11.55 L53.25 14.5 53.25 14.55 Q53.15 15.9 53.5 19.05 L53.85 24.5 Q53.8 25.8 54.15 27.15 L54.05 27.2 53.95 27.25 51.3 29.1 51.25 29.15 50.0 30.15 46.45 32.8 43.05 35.65 41.55 37.05 41.55 36.75 41.55 36.55 41.5 36.2 41.4 35.1 41.2 30.65 41.1 26.2 41.1 15.25 42.25 14.4 42.2 14.4 42.6 14.2 Q44.35 13.0 46.35 11.95 L46.4 11.95 46.9 11.7 46.95 11.7 Q48.5 10.85 50.25 10.15 L50.3 10.1 53.4 8.9 53.25 11.55 M43.8 8.1 L43.9 8.55 44.0 9.0 45.9 8.05 45.95 8.0 46.35 7.95 47.4 7.95 47.45 7.95 47.9 6.8 Q48.15 5.75 47.75 4.95 M43.0 7.4 L42.35 6.35 42.1 6.15 41.8 6.2 Q41.55 6.5 41.45 7.0 L41.35 7.85 40.85 10.65 41.95 10.1 42.15 10.05 M43.3 9.35 L43.5 8.75 M43.65 9.9 L43.65 10.15 43.65 10.7 43.5 11.15 43.8 11.0 44.0 9.65 44.15 9.65 46.15 8.6 46.35 8.6 47.2 8.6 M46.35 11.25 L46.05 11.4 42.4 13.5 M40.6 11.4 L40.35 11.9 40.1 12.2 40.0 11.95 40.0 11.85 36.25 13.85 40.4 14.65 40.75 14.6 40.8 14.6 41.9 13.85 42.0 13.8 Q41.7 12.5 41.95 11.0 L42.05 10.75 40.85 11.35 40.65 11.4 40.6 11.4 M40.85 36.35 L40.9 37.2 Q39.65 36.25 37.55 35.2 L34.1 33.5 Q33.5 33.15 33.3 33.15 L33.75 31.7 34.3 28.8 34.3 28.75 35.6 14.4 40.4 15.35 40.45 15.35 40.45 26.2 40.5 30.65 Q40.55 33.4 40.75 35.2 L40.85 36.2 40.85 36.35" fill="none" stroke="#ffffff" stroke-linecap="round" stroke-linejoin="round" stroke-width="0.25"/>
  </g>
</svg>
