<?xml version="1.0" encoding="UTF-8" standalone="no"?>
<svg xmlns:xlink="http://www.w3.org/1999/xlink" height="25.6px" width="45.55px" xmlns="http://www.w3.org/2000/svg">
  <g transform="matrix(1.0, 0.0, 0.0, 1.0, -39.65, -7.9)">
    <path d="M84.55 13.45 L84.5 20.45 84.6 25.45 84.7 29.95 M54.75 24.2 L54.7 29.2 54.7 33.0 M70.05 9.45 L69.8 14.45 M40.15 19.0 L40.2 21.65 40.2 24.25 40.2 28.2" fill="none" stroke="#ffffff" stroke-linecap="round" stroke-linejoin="round" stroke-width="1.0"/>
    <path d="M84.5 20.45 L77.75 21.35 77.3 21.4 73.85 21.85 55.0 24.3 54.75 24.2 40.5 18.8 59.6 16.3 63.5 15.8 70.0 14.95 84.5 20.45 M77.3 26.4 L84.6 25.45 M73.45 26.9 L77.3 26.4 M73.45 26.9 L55.0 29.3 M73.85 21.85 L59.6 16.3 M77.75 21.35 L63.5 15.8 M84.55 13.45 Q78.85 6.1 70.05 9.45 M54.7 29.2 L40.5 23.8" fill="none" stroke="#ffffff" stroke-linecap="round" stroke-linejoin="round" stroke-width="1.0"/>
    <path d="M77.3 21.4 L77.3 26.4 M73.45 22.6 L73.45 26.9" fill="none" stroke="#ffffff" stroke-linecap="round" stroke-linejoin="round" stroke-width="1.0"/>
    <path d="M72.1 14.65 Q71.95 14.4 74.7 14.65 77.45 14.9 80.1 17.75 80.2 19.7 75.8 20.6 71.1 19.55 69.15 16.55 71.2 14.85 71.7 14.9 72.25 14.9 72.1 14.65" fill="#ffffff" fill-rule="evenodd" stroke="none"/>
    <path d="M72.1 14.65 Q71.95 14.4 74.7 14.65 77.45 14.9 80.1 17.75 80.2 19.7 75.8 20.6 71.1 19.55 69.15 16.55 71.2 14.85 71.7 14.9 72.25 14.9 72.1 14.65 Z" fill="none" stroke="#ffffff" stroke-linecap="round" stroke-linejoin="round" stroke-width="1.0"/>
  </g>
</svg>
