<?xml version="1.0" encoding="UTF-8" standalone="no"?>
<svg xmlns:xlink="http://www.w3.org/1999/xlink" height="317.7px" width="102.6px" xmlns="http://www.w3.org/2000/svg">
  <g transform="matrix(1.0, 0.0, 0.0, 1.0, -9.05, -5.45)">
    <path d="M88.95 51.45 L88.95 34.05 85.85 34.05 M91.85 34.05 L88.95 34.05 M26.2 90.15 L26.2 96.15 M52.6 48.5 L52.6 54.45 M75.8 182.65 L75.8 185.85 M75.8 179.85 L75.8 182.65 M43.8 214.7 L43.8 217.75 43.8 220.65" fill="none" stroke="#ffffff" stroke-linecap="round" stroke-linejoin="round" stroke-width="2.0"/>
    <path d="M91.85 17.85 L88.95 17.85 85.85 17.85 M70.4 106.5 L70.4 141.3 10.05 141.3 10.05 93.2 10.05 51.45 10.05 6.45 88.95 6.45 88.95 17.85 M88.95 51.45 L103.7 51.45 103.65 105.6 94.65 105.6 94.65 108.65 M10.05 93.2 L25.3 93.2 M88.95 51.45 L68.75 51.45 68.75 54.45 M78.45 108.65 L78.45 105.6 57.2 105.6 57.2 93.2 42.4 93.2 42.4 96.15 M42.4 90.15 L42.4 93.2 M68.75 48.5 L68.75 51.45 M10.05 51.45 L52.3 51.45 M59.65 179.85 L59.65 182.65 59.65 185.85 M75.8 182.65 L103.7 182.6 103.65 217.75 78.45 217.75 78.45 260.55 10.05 260.55 10.05 217.75 10.05 182.6 59.65 182.65 M94.65 102.65 L94.65 105.6 M78.45 105.6 L78.45 102.65 M43.8 217.75 L78.45 217.75 M27.65 220.65 L27.65 217.75 10.05 217.75 M27.65 214.7 L27.65 217.75" fill="none" stroke="#ffffff" stroke-linecap="round" stroke-linejoin="round" stroke-width="2.0"/>
    <path d="M103.05 112.05 Q102.65 112.5 102.05 112.5 101.4 112.5 100.95 112.05 100.55 111.65 100.55 111.05 100.55 110.4 100.95 109.95 101.4 109.55 102.05 109.55 102.65 109.55 103.05 109.95 L103.5 111.05 Q103.5 111.65 103.05 112.05 M103.05 118.7 Q102.65 119.15 102.05 119.15 101.4 119.15 100.95 118.7 100.55 118.3 100.55 117.7 100.55 117.05 100.95 116.6 101.4 116.2 102.05 116.2 102.65 116.2 103.05 116.6 L103.5 117.7 Q103.5 118.3 103.05 118.7 M102.05 122.85 Q102.65 122.85 103.05 123.25 103.5 123.7 103.5 124.3 L103.05 125.35 Q102.65 125.8 102.05 125.8 101.4 125.8 100.95 125.35 100.55 124.95 100.55 124.3 100.55 123.7 100.95 123.25 101.4 122.85 102.05 122.85 M100.95 132.0 Q100.55 131.6 100.55 130.95 100.55 130.35 100.95 129.9 101.4 129.5 102.05 129.5 102.65 129.5 103.05 129.9 103.5 130.35 103.5 130.95 L103.05 132.0 Q102.65 132.45 102.05 132.45 101.4 132.45 100.95 132.0 M103.05 138.65 Q102.65 139.1 102.05 139.1 101.4 139.1 100.95 138.65 100.55 138.25 100.55 137.6 100.55 137.0 100.95 136.55 101.4 136.15 102.05 136.15 102.65 136.15 103.05 136.55 103.5 137.0 103.5 137.6 L103.05 138.65 M102.05 145.75 Q101.4 145.75 100.95 145.3 100.55 144.9 100.55 144.25 100.55 143.65 100.95 143.2 101.4 142.8 102.05 142.8 102.65 142.8 103.05 143.2 103.5 143.65 103.5 144.25 L103.05 145.3 Q102.65 145.75 102.05 145.75 M103.05 149.85 Q103.5 150.3 103.5 150.9 L103.05 151.95 Q102.65 152.4 102.05 152.4 101.4 152.4 100.95 151.95 100.55 151.55 100.55 150.9 100.55 150.3 100.95 149.85 101.4 149.45 102.05 149.45 102.65 149.45 103.05 149.85 M103.05 156.5 Q103.5 156.95 103.5 157.55 L103.05 158.6 Q102.65 159.05 102.05 159.05 101.4 159.05 100.95 158.6 100.55 158.2 100.55 157.55 100.55 156.95 100.95 156.5 101.4 156.1 102.05 156.1 102.65 156.1 103.05 156.5 M103.5 164.2 L103.05 165.25 Q102.65 165.7 102.05 165.7 101.4 165.7 100.95 165.25 100.55 164.85 100.55 164.2 100.55 163.6 100.95 163.15 101.4 162.75 102.05 162.75 102.65 162.75 103.05 163.15 103.5 163.6 103.5 164.2 M100.55 170.85 Q100.55 170.25 100.95 169.8 101.4 169.4 102.05 169.4 102.65 169.4 103.05 169.8 103.5 170.25 103.5 170.85 L103.05 171.9 Q102.65 172.3 102.05 172.3 101.4 172.3 100.95 171.9 100.55 171.5 100.55 170.85 M100.55 177.5 Q100.55 176.9 100.95 176.45 101.4 176.05 102.05 176.05 102.65 176.05 103.05 176.45 103.5 176.9 103.5 177.5 L103.05 178.55 Q102.65 178.95 102.05 178.95 101.4 178.95 100.95 178.55 100.55 178.15 100.55 177.5" fill="none" stroke="#ffffff" stroke-linecap="round" stroke-linejoin="round" stroke-width="1.0"/>
    <path d="M11.9 146.6 Q11.5 146.2 11.5 145.55 11.5 144.95 11.9 144.5 12.35 144.1 12.95 144.1 13.55 144.1 13.95 144.5 14.4 144.95 14.4 145.55 L13.95 146.6 Q13.55 147.05 12.95 147.05 12.35 147.05 11.9 146.6 M11.9 153.25 Q11.5 152.85 11.5 152.2 11.5 151.6 11.9 151.15 12.35 150.75 12.95 150.75 13.55 150.75 13.95 151.15 14.4 151.6 14.4 152.2 L13.95 153.25 Q13.55 153.65 12.95 153.65 12.35 153.65 11.9 153.25 M13.95 159.9 Q13.55 160.3 12.95 160.3 12.35 160.3 11.9 159.9 11.5 159.5 11.5 158.85 11.5 158.25 11.9 157.8 12.35 157.4 12.95 157.4 13.55 157.4 13.95 157.8 14.4 158.25 14.4 158.85 L13.95 159.9 M12.95 164.05 Q13.55 164.05 13.95 164.45 14.4 164.9 14.4 165.5 L13.95 166.55 Q13.55 166.95 12.95 166.95 12.35 166.95 11.9 166.55 11.5 166.15 11.5 165.5 11.5 164.9 11.9 164.45 12.35 164.05 12.95 164.05 M12.95 170.7 Q13.55 170.7 13.95 171.1 14.4 171.55 14.4 172.15 L13.95 173.2 Q13.55 173.6 12.95 173.6 12.35 173.6 11.9 173.2 11.5 172.8 11.5 172.15 11.5 171.55 11.9 171.1 12.35 170.7 12.95 170.7 M13.95 179.8 Q13.55 180.25 12.95 180.25 12.35 180.25 11.9 179.8 11.5 179.4 11.5 178.8 11.5 178.2 11.9 177.75 12.35 177.35 12.95 177.35 13.55 177.35 13.95 177.75 14.4 178.2 14.4 178.8 14.4 179.4 13.95 179.8" fill="none" stroke="#ffffff" stroke-linecap="round" stroke-linejoin="round" stroke-width="1.0"/>
    <path d="M78.15 22.15 L88.85 18.3" fill="none" stroke="#ffffff" stroke-linecap="round" stroke-linejoin="round" stroke-width="1.0"/>
    <path d="M78.15 22.15 Q80.2 30.85 88.95 33.9 M77.9 20.5 L78.15 22.15 Z" fill="none" stroke="#ffffff" stroke-linecap="round" stroke-linejoin="round" stroke-width="1.0"/>
    <path d="M56.9 61.3 L53.05 50.6" fill="none" stroke="#ffffff" stroke-linecap="round" stroke-linejoin="round" stroke-width="1.0"/>
    <path d="M55.25 61.55 L56.9 61.3 Q65.6 59.25 68.65 50.5" fill="none" stroke="#ffffff" stroke-linecap="round" stroke-linejoin="round" stroke-width="1.0"/>
    <path d="M82.8 115.5 L78.95 104.8" fill="none" stroke="#ffffff" stroke-linecap="round" stroke-linejoin="round" stroke-width="1.0"/>
    <path d="M81.15 115.75 L82.8 115.5 Q91.5 113.45 94.55 104.7" fill="none" stroke="#ffffff" stroke-linecap="round" stroke-linejoin="round" stroke-width="1.0"/>
    <path d="M31.75 228.0 L27.9 217.3" fill="none" stroke="#ffffff" stroke-linecap="round" stroke-linejoin="round" stroke-width="1.0"/>
    <path d="M30.1 228.3 L31.75 228.0 Q40.45 225.95 43.5 217.2" fill="none" stroke="#ffffff" stroke-linecap="round" stroke-linejoin="round" stroke-width="1.0"/>
    <path d="M63.65 193.0 L59.8 182.3" fill="none" stroke="#ffffff" stroke-linecap="round" stroke-linejoin="round" stroke-width="1.0"/>
    <path d="M62.0 193.3 L63.65 193.0 Q72.35 190.95 75.4 182.2" fill="none" stroke="#ffffff" stroke-linecap="round" stroke-linejoin="round" stroke-width="1.0"/>
    <path d="M58.95 270.45 L110.65 270.45 110.65 322.15 23.7 322.15 23.7 294.95 58.95 294.95 58.95 270.45 Z" fill="none" stroke="#ffffff" stroke-linecap="round" stroke-linejoin="round" stroke-width="2.0"/>
  </g>
</svg>
