<?xml version="1.0" encoding="UTF-8" standalone="no"?>
<svg xmlns:xlink="http://www.w3.org/1999/xlink" height="16.3px" width="23.45px" xmlns="http://www.w3.org/2000/svg">
  <g transform="matrix(1.0, 0.0, 0.0, 1.0, 0.35, -6.15)">
    <path d="M4.45 11.7 L4.45 13.2 6.15 13.2 6.15 14.65 4.5 14.7 4.5 16.15 2.8 16.2 2.8 14.7 1.2 14.7 1.2 13.25 2.8 13.2 2.75 11.75 4.45 11.7 M17.75 11.6 Q17.7 11.1 18.15 10.8 18.55 10.4 19.2 10.4 19.8 10.4 20.25 10.75 20.6 11.05 20.6 11.6 L20.25 12.35 19.2 12.7 Q18.6 12.7 18.15 12.35 17.75 12.05 17.75 11.6 M20.7 14.3 Q21.15 14.7 21.15 15.2 L20.75 16.05 Q20.3 16.45 19.7 16.45 19.15 16.45 18.65 16.15 18.2 15.75 18.2 15.2 18.2 14.7 18.65 14.35 19.05 14.0 19.7 14.0 20.3 14.0 20.7 14.3" fill="#ffffff" fill-rule="evenodd" stroke="none"/>
    <path d="M8.1 6.95 L10.55 6.7 13.35 6.5 15.15 6.55 Q15.95 6.65 16.8 7.2 17.5 7.8 18.3 7.85 L20.05 8.0 Q21.0 8.05 21.45 8.35 L22.2 9.15 22.65 12.8 22.7 16.5 22.45 17.75 21.65 18.75 Q20.95 19.3 19.8 19.65 18.55 19.9 17.55 20.6 16.55 21.35 13.95 21.85 11.35 22.35 8.85 21.8 6.3 21.2 5.55 20.6 4.75 20.05 4.05 19.95 L1.7 19.65 Q0.0 19.4 0.0 18.1 L0.1 15.15 0.15 11.95 Q0.15 10.35 0.6 9.8 1.0 9.35 3.15 8.9 L5.95 8.25 Q6.65 8.0 7.05 7.55 7.35 7.1 8.1 6.95 M7.25 14.2 Q7.55 9.8 7.95 8.85 L12.55 8.45 15.4 8.35 15.8 9.75 16.55 14.45 Q16.9 17.7 16.55 18.35 16.15 18.85 11.7 19.2 L7.1 18.9 Q6.9 18.35 7.25 14.2" fill="none" stroke="#ffffff" stroke-linecap="round" stroke-linejoin="round" stroke-width="0.75"/>
  </g>
</svg>
