<?xml version="1.0" encoding="UTF-8" standalone="no"?>
<svg xmlns:xlink="http://www.w3.org/1999/xlink" height="51.4px" width="128.6px" xmlns="http://www.w3.org/2000/svg">
  <g transform="matrix(1.0, 0.0, 0.0, 1.0, 115.3, 24.05)">
    <path d="M-30.9 1.05 Q-31.95 0.25 -34.85 3.05 -37.0 5.3 -38.2 7.65 L-39.5 11.6 Q-34.95 10.9 -31.8 5.95 -30.3 3.35 -30.35 2.25 -30.45 1.15 -30.9 1.05 M-4.1 -1.9 Q-3.3 -3.25 -3.5 -3.55 -4.05 -4.25 -7.45 -1.2 -10.45 2.25 -10.4 2.85 -10.95 3.75 -10.65 4.1 -9.55 3.9 -6.4 1.0 -4.9 -0.55 -4.1 -1.9 M-14.65 -15.85 Q-11.65 -16.7 -11.1 -14.35 -11.35 -11.75 -14.0 -10.75 L-16.15 -10.55 Q-17.3 -10.85 -17.6 -12.0 -17.65 -15.0 -14.65 -15.85 M-24.75 -1.75 Q-26.0 -3.45 -25.3 -4.05 -24.45 -4.6 -24.2 -4.2 -23.35 -4.15 -21.85 -5.05 -20.8 -5.55 -19.85 -6.0 L-19.25 -7.1 Q-18.0 -8.5 -16.25 -7.75 -14.1 -6.85 -15.4 -4.3 L-17.05 -1.4 -19.35 3.05 Q-21.3 7.6 -21.5 9.1 -21.75 11.5 -19.95 10.65 -18.1 10.2 -17.85 11.3 -17.55 11.85 -18.25 12.55 L-19.35 13.55 -21.1 14.3 Q-22.45 14.75 -23.9 13.8 -25.65 12.2 -25.4 9.05 -25.2 5.85 -24.2 3.0 L-22.65 -0.75 Q-22.5 -0.95 -22.65 -1.1 -23.2 -0.9 -24.75 -1.75 M-29.35 -18.85 Q-29.4 -17.3 -29.7 -16.2 L-31.0 -12.0 -33.15 -6.45 -35.75 0.3 Q-33.45 -1.95 -29.1 -2.3 -25.8 -1.95 -25.65 0.4 -25.5 2.7 -26.05 4.05 -26.45 5.65 -29.2 9.5 -31.95 13.35 -37.45 14.85 L-40.5 15.1 Q-40.85 16.35 -42.25 17.1 -43.65 17.25 -44.4 16.35 -44.9 15.4 -44.35 14.75 L-44.05 14.15 Q-45.5 13.45 -46.2 12.3 -47.4 10.25 -46.55 7.8 -46.1 6.55 -45.05 6.3 -44.05 6.05 -43.45 7.15 -43.2 8.2 -43.45 9.25 -43.7 10.3 -42.9 11.0 L-40.6 3.85 -38.55 -2.7 -36.9 -8.9 -35.15 -16.4 Q-34.4 -19.9 -34.45 -20.9 L-35.0 -21.85 Q-35.25 -22.4 -34.55 -22.75 -33.1 -23.35 -30.45 -21.65 -29.3 -20.45 -29.35 -18.85 M-53.6 -1.65 Q-53.35 -3.25 -53.25 -4.95 -53.15 -6.7 -53.55 -7.6 -54.4 -8.15 -54.5 -9.15 -54.35 -9.75 -53.35 -9.85 L-51.5 -9.8 Q-49.5 -9.2 -49.15 -8.2 -48.7 -7.3 -48.75 -6.1 L-48.8 -4.75 -46.55 -5.95 Q-44.4 -7.0 -42.05 -7.1 -39.5 -6.6 -39.95 -4.05 -40.6 -2.2 -42.35 -0.3 -44.05 1.7 -44.75 3.0 L-46.35 3.05 Q-46.45 2.4 -45.6 -0.15 -44.45 -3.5 -44.6 -3.9 -45.35 -3.65 -47.7 -0.95 -50.05 1.7 -50.65 3.35 L-51.5 7.75 -51.95 12.25 -51.6 14.7 Q-51.75 16.1 -52.55 16.7 -53.75 18.0 -55.1 17.65 -56.75 16.8 -56.3 14.65 L-55.6 10.25 -54.4 3.1 -53.6 -1.65 M10.3 -2.25 Q10.15 -3.5 9.75 -3.8 9.45 -4.85 10.95 -4.65 13.55 -4.0 13.3 -1.95 12.95 -1.35 12.45 -1.45 12.4 -1.55 12.1 -0.5 11.75 0.55 9.4 4.05 8.15 6.2 4.6 9.4 1.0 12.65 -5.8 14.35 -8.0 14.8 -10.25 14.4 -12.45 13.95 -13.85 12.6 -15.5 10.7 -15.7 9.0 -15.9 7.25 -15.7 6.9 -15.75 6.65 -16.25 6.3 -16.75 5.9 -16.75 5.0 -16.6 3.8 -15.85 3.4 L-14.9 3.35 Q-15.0 2.9 -13.65 0.25 -11.4 -3.75 -6.15 -7.2 -1.85 -9.15 -0.75 -8.2 1.7 -7.05 1.3 -3.75 0.5 0.4 -2.7 3.65 -5.9 6.95 -8.15 8.1 -10.55 9.25 -11.3 9.3 -11.75 9.6 -10.1 10.45 L-5.55 10.55 Q-2.35 10.05 2.3 7.1 6.85 3.8 8.6 1.0 10.35 -1.85 10.3 -2.25" fill="#ffffff" fill-rule="evenodd" stroke="none"/>
    <path d="M-78.35 9.35 Q-76.05 7.4 -76.25 5.3 -76.75 3.8 -79.2 3.35 L-83.1 2.85 -86.3 3.0 -90.35 3.5 -92.2 11.6 -92.95 16.85 Q-89.0 15.8 -83.9 13.05 -80.65 11.25 -78.35 9.35 M-112.8 -2.4 Q-110.15 -7.45 -102.0 -13.95 -93.35 -20.45 -85.35 -22.9 -77.45 -25.35 -73.35 -22.55 -71.05 -20.6 -70.95 -17.7 -70.85 -14.8 -71.8 -12.45 -74.15 -7.6 -77.0 -5.15 L-80.1 -2.3 -77.9 -2.0 Q-75.9 -1.8 -73.65 -0.35 -71.75 0.85 -71.2 3.6 L-70.6 2.45 Q-66.9 -3.9 -63.0 -5.6 -60.45 -7.0 -58.35 -5.2 -56.9 -3.7 -56.9 -2.45 -57.05 -0.8 -59.5 -0.35 -60.7 -0.45 -60.95 -1.15 -61.2 -1.85 -61.65 -1.95 -62.85 -1.85 -63.5 -0.8 -64.65 0.55 -67.4 5.65 L-69.6 10.9 Q-70.6 13.65 -70.4 14.25 -70.2 14.4 -69.15 13.2 L-67.1 10.5 -63.6 4.55 -61.9 1.15 Q-61.55 -0.25 -59.05 0.25 L-58.35 0.55 -58.15 0.65 Q-56.85 1.25 -57.75 3.35 -58.3 4.1 -58.75 5.75 L-59.4 8.8 -59.65 11.2 Q-59.7 12.55 -59.15 13.15 L-58.15 13.3 Q-57.7 13.1 -57.5 13.55 -57.35 14.05 -58.1 15.1 -58.9 16.05 -60.8 16.15 -63.8 15.7 -63.9 13.2 -64.05 10.9 -63.85 10.45 L-65.0 12.15 -68.0 15.95 Q-69.5 17.7 -70.95 18.9 -72.4 20.1 -73.85 19.8 -75.8 19.2 -75.6 16.3 -75.25 13.4 -74.25 10.5 -78.35 14.65 -86.05 17.9 -89.95 19.5 -93.15 20.3 L-93.15 22.65 -92.75 23.85 Q-92.55 24.35 -93.05 25.15 -93.8 26.3 -95.05 26.95 -96.4 27.9 -97.95 26.5 -98.4 25.75 -98.3 24.2 L-98.0 22.0 -97.95 21.35 -98.5 21.45 -103.35 21.25 Q-106.05 19.6 -105.95 17.75 -105.75 16.55 -104.1 16.7 -103.0 16.7 -101.5 17.25 L-98.65 17.8 -97.65 17.7 -96.2 4.95 -96.9 4.95 Q-98.85 4.75 -99.55 3.9 -100.25 3.05 -100.15 2.45 -100.15 1.65 -99.2 1.25 -98.35 0.8 -95.55 0.3 L-95.4 0.25 Q-94.25 -5.35 -92.95 -8.8 -91.65 -12.3 -90.85 -12.85 -89.75 -13.4 -87.9 -12.5 -86.1 -11.7 -86.3 -9.75 -86.4 -8.95 -86.8 -8.3 L-87.9 -5.55 -89.0 -1.85 Q-84.35 -4.1 -80.4 -7.95 -77.65 -10.7 -75.85 -13.75 -74.15 -16.8 -75.25 -18.35 -77.95 -20.5 -84.5 -18.05 -91.1 -15.65 -96.3 -12.1 -102.4 -8.1 -107.8 -2.35 -113.2 3.4 -112.15 7.45 -110.85 9.3 -108.65 8.05 -107.2 7.3 -106.1 7.7 -104.8 8.15 -104.9 9.35 -105.15 10.8 -107.15 11.55 -109.1 12.3 -111.65 11.25 -114.1 10.0 -114.75 8.25 -115.4 6.45 -115.3 4.95 -115.55 2.65 -112.8 -2.4" fill="#ffffff" fill-rule="evenodd" stroke="none"/>
  </g>
</svg>
