<?xml version="1.0" encoding="UTF-8" standalone="no"?>
<svg xmlns:xlink="http://www.w3.org/1999/xlink" height="12.65px" width="27.0px" xmlns="http://www.w3.org/2000/svg">
  <g transform="matrix(1.0, 0.0, 0.0, 1.0, -5.85, 0.35)">
    <path d="M32.05 0.1 L32.5 0.0 31.75 2.3 31.65 2.3 Q30.4 7.85 30.85 11.65 L28.8 11.65 Q30.3 7.5 29.9 4.8 29.75 2.6 28.45 2.4 25.5 2.85 23.15 4.9 21.1 6.65 20.35 8.3 19.6 9.95 18.65 10.75 L17.4 11.5 16.25 11.75 6.3 11.95 6.2 10.05 7.8 10.15 10.9 10.2 13.9 10.2 12.0 4.25 Q14.05 3.5 15.7 0.8 L22.85 3.25 23.0 3.15 25.5 1.75 26.05 1.45 27.15 1.0 29.5 0.45 30.4 0.35 32.05 0.1 M31.65 2.3 L28.45 2.4 M13.9 10.2 L14.15 10.2 16.3 9.6 17.3 9.05 15.45 4.45 20.15 5.85 20.85 5.0 22.85 3.25 M17.3 9.05 L19.0 7.35 20.15 5.85" fill="none" stroke="#ffffff" stroke-linecap="round" stroke-linejoin="round" stroke-width="0.75"/>
  </g>
</svg>
