<?xml version="1.0" encoding="UTF-8" standalone="no"?>
<svg xmlns:xlink="http://www.w3.org/1999/xlink" height="22.45px" width="19.0px" xmlns="http://www.w3.org/2000/svg">
  <g transform="matrix(1.0, 0.0, 0.0, 1.0, 2.75, 2.05)">
    <path d="M4.8 4.45 L8.25 4.45 15.75 4.45 15.75 17.8 14.1 17.8 12.55 17.8 1.0 17.8 -0.6 17.8 -2.25 17.8 -2.25 4.45 4.8 4.45 M13.45 6.5 L-0.05 6.5 -0.05 14.95 13.45 14.95 13.45 6.5" fill="none" stroke="#ffffff" stroke-linecap="round" stroke-linejoin="round" stroke-width="1.0"/>
    <path d="M2.2 -0.2 L1.8 -0.1 Q1.45 -0.1 1.2 -0.35 L1.0 -0.9 1.2 -1.5 1.8 -1.75 2.4 -1.5 2.6 -0.9 2.4 -0.35 2.2 -0.2 M8.25 4.45 L11.2 -0.1 M11.85 -1.8 L12.45 -1.6 12.7 -1.0 12.45 -0.4 11.85 -0.2 11.35 -0.35 11.25 -0.4 Q11.0 -0.65 11.0 -1.0 11.0 -1.4 11.25 -1.6 L11.85 -1.8 M14.1 17.8 L13.3 20.15 12.55 17.8 M1.0 17.8 L0.15 20.15 -0.6 17.8" fill="none" stroke="#ffffff" stroke-linecap="round" stroke-linejoin="round" stroke-width="0.5"/>
    <path d="M2.2 -0.2 L4.8 4.45 Z" fill="none" stroke="#ffffff" stroke-linecap="round" stroke-linejoin="round" stroke-width="0.5"/>
    <path d="M0.2 10.15 L1.8 8.5 3.45 10.15 5.0 8.5 6.65 10.2 8.3 8.5 10.05 10.15 11.6 8.5 13.3 10.15" fill="none" stroke="#ffffff" stroke-linecap="round" stroke-linejoin="round" stroke-width="0.5"/>
    <path d="M0.25 13.6 L1.85 11.95 3.5 13.6 5.05 11.95 6.7 13.65 8.35 11.95 10.1 13.6 11.65 11.95 13.35 13.6" fill="none" stroke="#ffffff" stroke-linecap="round" stroke-linejoin="round" stroke-width="0.5"/>
  </g>
</svg>
