<?xml version="1.0" encoding="UTF-8" standalone="no"?>
<svg xmlns:xlink="http://www.w3.org/1999/xlink" height="30.55px" width="20.1px" xmlns="http://www.w3.org/2000/svg">
  <g transform="matrix(1.0, 0.0, 0.0, 1.0, 0.25, 0.25)">
    <path d="M8.9 12.0 L3.4 28.95 Q3.9 30.5 5.35 29.6 L9.9 12.25" fill="none" stroke="#ffffff" stroke-linecap="round" stroke-linejoin="round" stroke-width="0.75"/>
    <path d="M9.8 2.45 L9.8 0.7 M15.7 3.1 L16.7 2.1 M18.2 12.0 L19.6 12.55 M15.2 12.75 L18.75 15.7 M14.8 14.9 L15.5 16.45 M16.95 7.4 L18.9 7.8 M15.15 6.1 L19.3 4.15 M3.3 7.85 L1.7 7.3 M3.1 12.3 L1.75 12.95 M4.6 9.6 L0.0 10.1 M8.45 4.15 L6.55 0.0 M5.45 3.6 L4.4 2.55" fill="none" stroke="#ffffff" stroke-linecap="round" stroke-linejoin="round" stroke-width="0.5"/>
    <path d="M12.85 15.55 L9.65 11.55 5.0 12.9 7.35 9.55 4.35 5.85 9.45 6.95 12.35 2.9 12.55 7.55 17.65 9.4 12.8 10.65 12.85 15.55" fill="none" stroke="#ffffff" stroke-linecap="round" stroke-linejoin="round" stroke-width="0.75"/>
  </g>
</svg>
